# xmcd
#
# Track frame offsets: 
#        150
#        15995
#        27857
#        40287
#        50150
#        60997
#        72115
#        84022
#        95940
#        106710
#        117950
#        133312
#        148755
#        163635
#        174667
#        185777
#        196940
#        207555
#        217782
#
# Disc length: 3037 seconds
#
# Revision: 6
# Processed by: cddbd v1.5.2PL0 Copyright (c) Steve Scherf et al.
# Submitted via: ExactAudioCopy v1.0b1
#
DISCID=0f0bdb13
DTITLE=Dinah Washington and Brook Benton - The Two of Us
DYEAR=1959
DGENRE=Vocal Jazz
TTITLE0=There Goes My Heart
TTITLE1=Call Me
TTITLE2=Baby (You've Got What It Takes)
TTITLE3=Love Walked In
TTITLE4=Not One Step Behind
TTITLE5=A Rockin' Good Way
TTITLE6=Someone To Believe In
TTITLE7=This I Promise You
TTITLE8=I Do
TTITLE9=Because Of Everything
TTITLE10=Again
TTITLE11=I Believe
TTITLE12=Nothing In The World
TTITLE13=While We're Young
TTITLE14=Looking Back
TTITLE15=We Have Love
TTITLE16=Early Every Morning
TTITLE17=Love Walked In
TTITLE18=Someone To Believe In
EXTD=
EXTT0=
EXTT1=
EXTT2=
EXTT3=
EXTT4=
EXTT5=
EXTT6=
EXTT7=
EXTT8=
EXTT9=
EXTT10=
EXTT11=
EXTT12=
EXTT13=
EXTT14=
EXTT15=
EXTT16=
EXTT17=
EXTT18=
PLAYORDER=
